<svg width="294" height="80" viewBox="0 0 294 80" fill="none" xmlns="http://www.w3.org/2000/svg">
<g filter="url(#filter0_d_12_107)">
<path d="M29.445 71.14C24.7583 71.14 20.5467 70.1267 16.81 68.1C13.0733 66.0733 10.0967 63.16 7.88 59.36C5.72667 55.4967 4.65 50.8733 4.65 45.49V0.649998H13.39V30.195H13.58C14.6567 28.2317 16.05 26.5217 17.76 25.065C19.5333 23.6083 21.5283 22.4683 23.745 21.645C26.025 20.8217 28.4 20.41 30.87 20.41C35.3667 20.41 39.3883 21.4233 42.935 23.45C46.4817 25.4767 49.2683 28.3583 51.295 32.095C53.385 35.7683 54.43 40.1383 54.43 45.205C54.43 49.195 53.7967 52.805 52.53 56.035C51.3267 59.2017 49.6167 61.925 47.4 64.205C45.1833 66.485 42.555 68.2267 39.515 69.43C36.475 70.57 33.1183 71.14 29.445 71.14ZM29.445 63.635C32.4217 63.635 35.1133 62.9067 37.52 61.45C39.99 59.9933 41.9533 57.935 43.41 55.275C44.8667 52.615 45.595 49.4483 45.595 45.775C45.595 42.2283 44.8667 39.125 43.41 36.465C42.0167 33.805 40.1167 31.715 37.71 30.195C35.3033 28.675 32.58 27.915 29.54 27.915C26.5633 27.915 23.84 28.6433 21.37 30.1C18.9633 31.5567 17.0317 33.6467 15.575 36.37C14.1817 39.03 13.485 42.1967 13.485 45.87C13.485 49.48 14.1817 52.615 15.575 55.275C17.0317 57.935 18.9633 59.9933 21.37 61.45C23.84 62.9067 26.5317 63.635 29.445 63.635ZM88.4088 71.14C83.4688 71.14 79.0988 70.0317 75.2988 67.815C71.4988 65.535 68.4905 62.495 66.2738 58.695C64.0572 54.8317 62.9488 50.525 62.9488 45.775C62.9488 41.025 64.0572 36.75 66.2738 32.95C68.4905 29.0867 71.4988 26.0467 75.2988 23.83C79.0988 21.55 83.4688 20.41 88.4088 20.41C93.3488 20.41 97.7188 21.55 101.519 23.83C105.382 26.0467 108.39 29.055 110.544 32.855C112.76 36.655 113.869 40.9617 113.869 45.775C113.869 50.525 112.76 54.8317 110.544 58.695C108.39 62.495 105.382 65.535 101.519 67.815C97.7188 70.0317 93.3488 71.14 88.4088 71.14ZM88.4088 63.635C91.7655 63.635 94.6788 62.8433 97.1488 61.26C99.6188 59.6767 101.55 57.555 102.944 54.895C104.337 52.1717 105.034 49.1317 105.034 45.775C105.034 42.4183 104.337 39.41 102.944 36.75C101.55 34.0267 99.6188 31.8733 97.1488 30.29C94.6788 28.7067 91.7655 27.915 88.4088 27.915C85.1155 27.915 82.2022 28.7067 79.6688 30.29C77.1988 31.8733 75.2672 34.0267 73.8738 36.75C72.4805 39.41 71.7838 42.4183 71.7838 45.775C71.7838 49.1317 72.4805 52.1717 73.8738 54.895C75.2672 57.555 77.1988 59.6767 79.6688 61.26C82.2022 62.8433 85.1155 63.635 88.4088 63.635ZM147.877 71.14C142.937 71.14 138.567 70.0317 134.767 67.815C130.967 65.535 127.958 62.495 125.742 58.695C123.525 54.8317 122.417 50.525 122.417 45.775C122.417 41.025 123.525 36.75 125.742 32.95C127.958 29.0867 130.967 26.0467 134.767 23.83C138.567 21.55 142.937 20.41 147.877 20.41C152.817 20.41 157.187 21.55 160.987 23.83C164.85 26.0467 167.858 29.055 170.012 32.855C172.228 36.655 173.337 40.9617 173.337 45.775C173.337 50.525 172.228 54.8317 170.012 58.695C167.858 62.495 164.85 65.535 160.987 67.815C157.187 70.0317 152.817 71.14 147.877 71.14ZM147.877 63.635C151.233 63.635 154.147 62.8433 156.617 61.26C159.087 59.6767 161.018 57.555 162.412 54.895C163.805 52.1717 164.502 49.1317 164.502 45.775C164.502 42.4183 163.805 39.41 162.412 36.75C161.018 34.0267 159.087 31.8733 156.617 30.29C154.147 28.7067 151.233 27.915 147.877 27.915C144.583 27.915 141.67 28.7067 139.137 30.29C136.667 31.8733 134.735 34.0267 133.342 36.75C131.948 39.41 131.252 42.4183 131.252 45.775C131.252 49.1317 131.948 52.1717 133.342 54.895C134.735 57.555 136.667 59.6767 139.137 61.26C141.67 62.8433 144.583 63.635 147.877 63.635ZM184.544 70V0.649998H193.284V41.88H206.584L219.314 21.55H229.004L215.229 43.21C219.789 44.54 223.336 47.0417 225.869 50.715C228.466 54.325 229.764 58.5367 229.764 63.35V70H220.929V63.35C220.929 60.69 220.328 58.315 219.124 56.225C217.984 54.135 216.369 52.4883 214.279 51.285C212.189 50.0183 209.783 49.385 207.059 49.385H193.284V70H184.544ZM264.574 71.14C260.901 71.14 257.544 70.57 254.504 69.43C251.464 68.2267 248.836 66.485 246.619 64.205C244.403 61.925 242.661 59.2017 241.394 56.035C240.191 52.805 239.589 49.195 239.589 45.205C239.589 40.1383 240.603 35.7683 242.629 32.095C244.719 28.3583 247.538 25.4767 251.084 23.45C254.694 21.4233 258.716 20.41 263.149 20.41C265.619 20.41 267.963 20.8217 270.179 21.645C272.459 22.4683 274.486 23.6083 276.259 25.065C278.033 26.5217 279.426 28.2317 280.439 30.195H280.629V0.649998H289.369V45.49C289.369 50.8733 288.261 55.4967 286.044 59.36C283.891 63.16 280.946 66.0733 277.209 68.1C273.536 70.1267 269.324 71.14 264.574 71.14ZM264.574 63.635C267.551 63.635 270.243 62.9067 272.649 61.45C275.056 59.9933 276.956 57.935 278.349 55.275C279.806 52.615 280.534 49.48 280.534 45.87C280.534 42.1967 279.806 39.03 278.349 36.37C276.956 33.6467 275.056 31.5567 272.649 30.1C270.243 28.6433 267.519 27.915 264.479 27.915C261.503 27.915 258.779 28.675 256.309 30.195C253.903 31.715 251.971 33.805 250.514 36.465C249.121 39.125 248.424 42.2283 248.424 45.775C248.424 49.4483 249.153 52.615 250.609 55.275C252.066 57.935 253.998 59.9933 256.404 61.45C258.874 62.9067 261.598 63.635 264.574 63.635Z" fill="white"/>
</g>
<defs>
<filter id="filter0_d_12_107" x="0.650391" y="0.650024" width="292.719" height="78.49" filterUnits="userSpaceOnUse" color-interpolation-filters="sRGB">
<feFlood flood-opacity="0" result="BackgroundImageFix"/>
<feColorMatrix in="SourceAlpha" type="matrix" values="0 0 0 0 0 0 0 0 0 0 0 0 0 0 0 0 0 0 127 0" result="hardAlpha"/>
<feOffset dy="4"/>
<feGaussianBlur stdDeviation="2"/>
<feComposite in2="hardAlpha" operator="out"/>
<feColorMatrix type="matrix" values="0 0 0 0 0 0 0 0 0 0 0 0 0 0 0 0 0 0 0.25 0"/>
<feBlend mode="normal" in2="BackgroundImageFix" result="effect1_dropShadow_12_107"/>
<feBlend mode="normal" in="SourceGraphic" in2="effect1_dropShadow_12_107" result="shape"/>
</filter>
</defs>
</svg>
