<svg width="322" height="322" viewBox="0 0 322 322" fill="none" xmlns="http://www.w3.org/2000/svg">
<g clip-path="url(#clip0_12_108)">
<g clip-path="url(#clip1_12_108)">
<g clip-path="url(#clip2_12_108)">
<rect x="-1" width="322" height="322" rx="38" fill="white"/>
<rect x="55" y="70" width="155" height="20" fill="white"/>
<path d="M55 101H106V197L95 198.5H80H71.5L63.5 197L55 194.5V101Z" fill="white"/>
<rect x="115" y="101" width="39" height="49" fill="white"/>
<rect x="164" y="101" width="46" height="49" fill="white"/>
<rect x="164" y="161" width="46" height="49" fill="white"/>
<rect x="219" y="101" width="42" height="49" fill="white"/>
<path d="M219 160H261V203.5L259.5 205.5L257.5 207H219V160Z" fill="white"/>
<path d="M219 160H261V203.5L259.5 205.5L257.5 207H219V160Z" fill="white"/>
<rect x="219" y="70" width="42" height="20" fill="white"/>
<path d="M152 161L138.5 174.5C130 182 124 188 115 192L115 161L152 161Z" fill="white"/>
<path d="M214 0V43.5L210 69.5L206 88L198 104.5L183.5 125.5L160 154L139 174.5L128 184L119 192L107.5 197L96 198.5H71.5L58 195.5L45 192L25.5 182.5L12.5 174.5L-2.5 162V0H214Z" fill="#FFC700" fill-opacity="0.51"/>
<path d="M149 268L178 237.5L199.5 210L216.5 181.5L321.5 105.5L319.5 118.5L317 126L313.5 133L309 140.5L291.5 165.5L255 210L237 228.5L213.5 248L196.5 258.5L174 270.5L152.5 277L133.383 281.5L149 268Z" fill="#DBFF00" fill-opacity="0.38"/>
<path d="M321 109V220.5L317.5 219L311 216L304.5 213L291 206.5L279 200.5L267.5 194.5L276.5 183.5L284.5 174L291 165.5L297.5 157L304.5 147L309 141L314 131L316.5 124.5L318.5 120L321 109Z" fill="#D9D9D9" fill-opacity="0.42"/>
<path d="M213.5 0H289.5L301.5 2L317 14L321 33V106L311.5 113L300 121.5L277 137.5L260 150L247 159.5L216.5 181.5L208 197L200 209.5L191.5 220.5L182.5 232L174.5 241L166 250L157.5 260L150 267.5L141 275L134.5 281H127.5H93.5L85.5 279L68.5 275L54 270.5L34 262.5L11.5 250L-1 240V163.5L7 170L21.5 180.5L41 190.5L55.5 195L72 199H77.5H93L100 198L106.5 197L118.5 192L131.5 181.5L145.5 168.5L161.5 152.5L177.5 133L188.5 118.5L200 102L205.5 89L208 78.5L211 63L213.5 43V0Z" fill="#D9D9D9" fill-opacity="0.62"/>
<path d="M268 194.5L321 220.5V322H288.5H-1V295.5L4.5 302.5L8 304.5L13.5 305.5L20.5 307L29.5 308L36.5 309L56 307L81 302.5L106 294.5L133.5 281L158 275.5L174.5 270L191.5 261L210.5 249.5L226.5 237L238.5 226.5L252 213.5L268 194.5Z" fill="#D9D9D9" fill-opacity="0.42"/>
</g>
<path d="M5 244.5L17 252.5L36.5 262.5L53 270L70.5 275.5L92.5 281H112.5H133L105 295L82 302L58.5 306.5L36.5 309L17 306.5L5 303.5L1.5 298.5L-1 291.5V287V240.5L5 244.5Z" fill="#13EB1B" fill-opacity="0.42"/>
<path d="M283.5 0H37.5C16.5132 0 -0.5 17.0132 -0.5 38V284C-0.5 304.987 16.5132 322 37.5 322H283.5C304.487 322 321.5 304.987 321.5 284V38C321.5 17.0132 304.487 0 283.5 0Z" fill="black"/>
<path d="M283.5 0H37.5C16.5132 0 -0.5 17.0132 -0.5 38V284C-0.5 304.987 16.5132 322 37.5 322H283.5C304.487 322 321.5 304.987 321.5 284V38C321.5 17.0132 304.487 0 283.5 0Z" fill="white"/>
<path d="M321.5 0H-0.5V322H321.5V0Z" fill="#FB0096" fill-opacity="0.78"/>
<path d="M214.5 0V43.5L210.5 69.5L206.5 88L198.5 104.5L184 125.5L160.5 154L139.5 174.5L128.5 184L119.5 192L108 197L96.5 198.5H72L58.5 195.5L45.5 192L26 182.5L13 174.5L-2 162V0H214.5Z" fill="url(#paint0_linear_12_108)" fill-opacity="0.51"/>
<path d="M149.5 268L178.5 237.5L200 210L217 181.5L322 105.5L320 118.5L317.5 126L314 133L309.5 140.5L292 165.5L255.5 210L237.5 228.5L214 248L197 258.5L174.5 270.5L153 277L133.883 281.5L149.5 268Z" fill="url(#paint1_linear_12_108)"/>
<path d="M214 0H290L302 2L317.5 14L321.5 33V106L312 113L300.5 121.5L277.5 137.5L260.5 150L247.5 159.5L217 181.5L208.5 197L200.5 209.5L192 220.5L183 232L175 241L166.5 250L158 260L150.5 267.5L141.5 275L135 281H128H94L86 279L69 275L54.5 270.5L34.5 262.5L12 250L-0.5 240V163.5L7.5 170L22 180.5L41.5 190.5L56 195L72.5 199H78H93.5L100.5 198L107 197L119 192L132 181.5L146 168.5L162 152.5L178 133L189 118.5L200.5 102L206 89L208.5 78.5L211.5 63L214 43V0Z" fill="url(#paint2_angular_12_108)" fill-opacity="0.62"/>
<path d="M268.5 194.5L321.5 220.5V322H289H-0.5V295.5L5 302.5L8.5 304.5L14 305.5L21 307L30 308L37 309L56.5 307L81.5 302.5L106.5 294.5L134 281L158.5 275.5L175 270L192 261L211 249.5L227 237L239 226.5L252.5 213.5L268.5 194.5Z" fill="url(#paint3_linear_12_108)" fill-opacity="0.42"/>
<path d="M5.5 244.5L17.5 252.5L37 262.5L53.5 270L71 275.5L93 281H113H133.5L105.5 295L82.5 302L59 306.5L37 309L17.5 306.5L5.5 303.5L2 298.5L-0.5 291.5V287V240.5L5.5 244.5Z" fill="url(#paint4_linear_12_108)" fill-opacity="0.42"/>
<path d="M321.5 109V220.5L318 219L311.5 216L305 213L291.5 206.5L279.5 200.5L268 194.5L277 183.5L285 174L291.5 165.5L298 157L305 147L309.5 141L314.5 131L317 124.5L319 120L321.5 109Z" fill="url(#paint5_linear_12_108)" fill-opacity="0.42"/>
<path d="M228.146 77.6117H28V103.437H228.146V77.6117Z" fill="white"/>
<path d="M28 117.641H93.8544V241.602L79.6505 243.539H60.2816H49.3058L38.9757 241.602L28 238.374V117.641Z" fill="white"/>
<path d="M155.835 117.641H105.476V180.913H155.835V117.641Z" fill="white"/>
<path d="M228.146 117.641H168.748V180.913H228.146V117.641Z" fill="url(#paint6_linear_12_108)"/>
<path d="M228 195H169V258H228V195Z" fill="white"/>
<path d="M294 117.641H239.767V180.913H294V117.641Z" fill="white"/>
<path d="M239.767 193.825H294V249.995L292.063 252.578L289.48 254.515H239.767V193.825Z" fill="url(#paint7_linear_12_108)"/>
<path d="M239.767 193.825H294V249.995L292.063 252.578L289.48 254.515H239.767V193.825Z" fill="white"/>
<path d="M294 77.6117H239.767V103.437H294V77.6117Z" fill="white"/>
<path d="M153.252 195.117L135.82 212.549C124.845 222.233 117.097 229.981 105.476 235.146V195.117H153.252Z" fill="white"/>
</g>
</g>
<defs>
<linearGradient id="paint0_linear_12_108" x1="112.5" y1="189.5" x2="8" y2="-18.5" gradientUnits="userSpaceOnUse">
<stop offset="0.322917" stop-color="#FFC700"/>
<stop offset="0.670289" stop-color="#FF0000" stop-opacity="0.87"/>
<stop offset="1" stop-color="#FF0099" stop-opacity="0.32"/>
</linearGradient>
<linearGradient id="paint1_linear_12_108" x1="227.941" y1="105.5" x2="227.941" y2="281.5" gradientUnits="userSpaceOnUse">
<stop offset="0.0677083" stop-color="#FF0099" stop-opacity="0.53"/>
<stop offset="0.8125" stop-color="#DBFF00" stop-opacity="0.62"/>
</linearGradient>
<radialGradient id="paint2_angular_12_108" cx="0" cy="0" r="1" gradientUnits="userSpaceOnUse" gradientTransform="translate(221 160) rotate(116.565) scale(135.282 59.0322)">
<stop offset="0.523963" stop-color="#FAFF00"/>
<stop offset="1" stop-color="#FF056E"/>
</radialGradient>
<linearGradient id="paint3_linear_12_108" x1="273" y1="209.5" x2="160.5" y2="322" gradientUnits="userSpaceOnUse">
<stop stop-color="#FE006B"/>
<stop offset="1" stop-color="#FF7A00"/>
</linearGradient>
<linearGradient id="paint4_linear_12_108" x1="66.5" y1="240.5" x2="66.5" y2="309" gradientUnits="userSpaceOnUse">
<stop offset="0.512618" stop-color="#FA557D"/>
<stop offset="1" stop-color="#E6EB13"/>
</linearGradient>
<linearGradient id="paint5_linear_12_108" x1="314.5" y1="123.5" x2="303" y2="208.5" gradientUnits="userSpaceOnUse">
<stop stop-color="#ED7F5C"/>
<stop offset="1" stop-color="#FF006A"/>
</linearGradient>
<linearGradient id="paint6_linear_12_108" x1="198.447" y1="117.641" x2="198.447" y2="180.913" gradientUnits="userSpaceOnUse">
<stop offset="0.9998" stop-color="white"/>
<stop offset="0.9999" stop-color="white" stop-opacity="0"/>
<stop offset="1" stop-color="white" stop-opacity="0"/>
</linearGradient>
<linearGradient id="paint7_linear_12_108" x1="266.883" y1="193.825" x2="266.883" y2="254.515" gradientUnits="userSpaceOnUse">
<stop stop-color="white"/>
<stop offset="0.703125" stop-color="white" stop-opacity="0.81"/>
<stop offset="1" stop-color="white" stop-opacity="0"/>
</linearGradient>
<clipPath id="clip0_12_108">
<rect width="322" height="322" rx="38" fill="white"/>
</clipPath>
<clipPath id="clip1_12_108">
<rect width="322" height="322" rx="55" fill="white"/>
</clipPath>
<clipPath id="clip2_12_108">
<rect x="-1" width="322" height="322" rx="38" fill="white"/>
</clipPath>
</defs>
</svg>
